<svg width="402" height="402" viewBox="0 0 402 402" fill="none" xmlns="http://www.w3.org/2000/svg">
<mask id="mask0_46_409" style="mask-type:alpha" maskUnits="userSpaceOnUse" x="0" y="0" width="402" height="402">
<rect width="402" height="402" fill="white"/>
</mask>
<g mask="url(#mask0_46_409)">
<path d="M201 201C182.575 201 166.802 194.44 153.681 181.319C140.56 168.198 134 152.425 134 134C134 115.575 140.56 99.8021 153.681 86.6813C166.802 73.5604 182.575 67 201 67C219.425 67 235.198 73.5604 248.319 86.6813C261.44 99.8021 268 115.575 268 134C268 152.425 261.44 168.198 248.319 181.319C235.198 194.44 219.425 201 201 201ZM67 335V288.1C67 278.608 69.4427 269.884 74.3281 261.928C79.2135 253.972 85.7042 247.9 93.8 243.713C111.108 235.058 128.696 228.568 146.562 224.241C164.429 219.914 182.575 217.75 201 217.75C219.425 217.75 237.571 219.914 255.438 224.241C273.304 228.568 290.892 235.058 308.2 243.713C316.296 247.9 322.786 253.972 327.672 261.928C332.557 269.884 335 278.608 335 288.1V335H67ZM100.5 301.5H301.5V288.1C301.5 285.029 300.732 282.237 299.197 279.725C297.661 277.212 295.638 275.258 293.125 273.863C278.05 266.325 262.835 260.672 247.481 256.903C232.127 253.134 216.633 251.25 201 251.25C185.367 251.25 169.873 253.134 154.519 256.903C139.165 260.672 123.95 266.325 108.875 273.863C106.362 275.258 104.339 277.212 102.803 279.725C101.268 282.237 100.5 285.029 100.5 288.1V301.5ZM201 167.5C210.213 167.5 218.099 164.22 224.659 157.659C231.22 151.099 234.5 143.213 234.5 134C234.5 124.787 231.22 116.901 224.659 110.341C218.099 103.78 210.213 100.5 201 100.5C191.787 100.5 183.901 103.78 177.341 110.341C170.78 116.901 167.5 124.787 167.5 134C167.5 143.213 170.78 151.099 177.341 157.659C183.901 164.22 191.787 167.5 201 167.5Z" fill="white"/>
</g>
</svg>
